<mxfile host="app.diagrams.net" modified="2023-08-13T19:06:58.802Z" agent="5.0 (Windows NT 10.0; Win64; x64) AppleWebKit/537.36 (KHTML, like Gecko) Chrome/115.0.0.0 Safari/537.36 Edg/115.0.1901.200" etag="8QHmqtcdL3-PlZdbmw-0" version="20.8.13" type="github">
  <diagram name="Page-1" id="PgcG3TLKtwn3ZaoVPNtb">
    <mxGraphModel dx="1079" dy="650" grid="1" gridSize="10" guides="1" tooltips="1" connect="1" arrows="1" fold="1" page="1" pageScale="1" pageWidth="1100" pageHeight="1700" math="0" shadow="0">
      <root>
        <mxCell id="0" />
        <mxCell id="1" parent="0" />
        <mxCell id="a31T5-RE2H_aCCWQN1QR-1" value="JDG" style="rounded=0;whiteSpace=wrap;html=1;" parent="1" vertex="1">
          <mxGeometry x="350" y="640" width="1420" height="30" as="geometry" />
        </mxCell>
        <mxCell id="a31T5-RE2H_aCCWQN1QR-26" style="edgeStyle=orthogonalEdgeStyle;rounded=0;orthogonalLoop=1;jettySize=auto;html=1;exitX=0;exitY=0;exitDx=70;exitDy=80;exitPerimeter=0;strokeColor=#4AAEF0;curved=1;" parent="1" source="a31T5-RE2H_aCCWQN1QR-6" target="a31T5-RE2H_aCCWQN1QR-24" edge="1">
          <mxGeometry relative="1" as="geometry">
            <Array as="points">
              <mxPoint x="1070" y="980" />
              <mxPoint x="430" y="980" />
            </Array>
          </mxGeometry>
        </mxCell>
        <mxCell id="a31T5-RE2H_aCCWQN1QR-27" style="edgeStyle=orthogonalEdgeStyle;rounded=0;orthogonalLoop=1;jettySize=auto;html=1;entryX=0;entryY=0;entryDx=50;entryDy=0;entryPerimeter=0;exitX=0;exitY=0;exitDx=70;exitDy=80;exitPerimeter=0;strokeColor=#4AAEF0;elbow=vertical;curved=1;" parent="1" source="a31T5-RE2H_aCCWQN1QR-6" target="a31T5-RE2H_aCCWQN1QR-21" edge="1">
          <mxGeometry relative="1" as="geometry">
            <Array as="points">
              <mxPoint x="1070" y="970" />
              <mxPoint x="750" y="970" />
            </Array>
          </mxGeometry>
        </mxCell>
        <mxCell id="a31T5-RE2H_aCCWQN1QR-31" style="edgeStyle=orthogonalEdgeStyle;rounded=0;orthogonalLoop=1;jettySize=auto;html=1;entryX=0;entryY=0;entryDx=50;entryDy=0;entryPerimeter=0;exitX=0;exitY=0;exitDx=70;exitDy=80;exitPerimeter=0;curved=1;strokeColor=#4AAEF0;" parent="1" source="a31T5-RE2H_aCCWQN1QR-6" target="a31T5-RE2H_aCCWQN1QR-3" edge="1">
          <mxGeometry relative="1" as="geometry">
            <Array as="points">
              <mxPoint x="1070" y="980" />
              <mxPoint x="1410" y="980" />
            </Array>
          </mxGeometry>
        </mxCell>
        <mxCell id="BxIv-oCnD2FX7Bfe5fGx-6" style="edgeStyle=orthogonalEdgeStyle;curved=1;rounded=0;orthogonalLoop=1;jettySize=auto;html=1;entryX=0;entryY=0;entryDx=50;entryDy=0;entryPerimeter=0;strokeColor=#4AAEF0;elbow=vertical;" edge="1" parent="1" source="a31T5-RE2H_aCCWQN1QR-6" target="a31T5-RE2H_aCCWQN1QR-17">
          <mxGeometry relative="1" as="geometry">
            <Array as="points">
              <mxPoint x="1070" y="960" />
              <mxPoint x="980" y="960" />
            </Array>
          </mxGeometry>
        </mxCell>
        <mxCell id="a31T5-RE2H_aCCWQN1QR-6" value="jdg-ui" style="shape=cube;whiteSpace=wrap;html=1;boundedLbl=1;backgroundOutline=1;darkOpacity=0.05;darkOpacity2=0.1;fillColor=#7AE4FF;" parent="1" vertex="1">
          <mxGeometry x="1000" y="850" width="120" height="80" as="geometry" />
        </mxCell>
        <mxCell id="a31T5-RE2H_aCCWQN1QR-12" value="Family Tree" style="swimlane;whiteSpace=wrap;html=1;" parent="1" vertex="1">
          <mxGeometry x="1330" y="1240" width="440" height="160" as="geometry">
            <mxRectangle x="620" y="1010" width="110" height="30" as="alternateBounds" />
          </mxGeometry>
        </mxCell>
        <mxCell id="a31T5-RE2H_aCCWQN1QR-3" value="family-tree" style="shape=cube;whiteSpace=wrap;html=1;boundedLbl=1;backgroundOutline=1;darkOpacity=0.05;darkOpacity2=0.1;fillColor=#D9F7FF;" parent="a31T5-RE2H_aCCWQN1QR-12" vertex="1">
          <mxGeometry x="30" y="50" width="120" height="80" as="geometry" />
        </mxCell>
        <mxCell id="a31T5-RE2H_aCCWQN1QR-14" value="family-tree-data" style="shape=cube;whiteSpace=wrap;html=1;boundedLbl=1;backgroundOutline=1;darkOpacity=0.05;darkOpacity2=0.1;fillColor=#DEFFE1;" parent="a31T5-RE2H_aCCWQN1QR-12" vertex="1">
          <mxGeometry x="160" y="50" width="120" height="80" as="geometry" />
        </mxCell>
        <mxCell id="a31T5-RE2H_aCCWQN1QR-15" value="family-tree-deploy" style="shape=cube;whiteSpace=wrap;html=1;boundedLbl=1;backgroundOutline=1;darkOpacity=0.05;darkOpacity2=0.1;fillColor=#FFE8BA;" parent="a31T5-RE2H_aCCWQN1QR-12" vertex="1">
          <mxGeometry x="290" y="50" width="130" height="80" as="geometry" />
        </mxCell>
        <mxCell id="a31T5-RE2H_aCCWQN1QR-16" value="JDG Website" style="swimlane;whiteSpace=wrap;html=1;" parent="1" vertex="1">
          <mxGeometry x="910" y="1010" width="360" height="160" as="geometry">
            <mxRectangle x="620" y="1010" width="110" height="30" as="alternateBounds" />
          </mxGeometry>
        </mxCell>
        <mxCell id="a31T5-RE2H_aCCWQN1QR-17" value="jdg-website" style="shape=cube;whiteSpace=wrap;html=1;boundedLbl=1;backgroundOutline=1;darkOpacity=0.05;darkOpacity2=0.1;fillColor=#D9F7FF;" parent="a31T5-RE2H_aCCWQN1QR-16" vertex="1">
          <mxGeometry x="20" y="50" width="120" height="80" as="geometry" />
        </mxCell>
        <mxCell id="a31T5-RE2H_aCCWQN1QR-19" value="jdg-website-deploy" style="shape=cube;whiteSpace=wrap;html=1;boundedLbl=1;backgroundOutline=1;darkOpacity=0.05;darkOpacity2=0.1;fillColor=#FFE8BA;" parent="a31T5-RE2H_aCCWQN1QR-16" vertex="1">
          <mxGeometry x="210" y="50" width="130" height="80" as="geometry" />
        </mxCell>
        <mxCell id="a31T5-RE2H_aCCWQN1QR-20" value="CCP Website" style="swimlane;whiteSpace=wrap;html=1;" parent="1" vertex="1">
          <mxGeometry x="680" y="1240" width="300" height="160" as="geometry">
            <mxRectangle x="620" y="1010" width="110" height="30" as="alternateBounds" />
          </mxGeometry>
        </mxCell>
        <mxCell id="a31T5-RE2H_aCCWQN1QR-21" value="ccp-website" style="shape=cube;whiteSpace=wrap;html=1;boundedLbl=1;backgroundOutline=1;darkOpacity=0.05;darkOpacity2=0.1;fillColor=#D9F7FF;" parent="a31T5-RE2H_aCCWQN1QR-20" vertex="1">
          <mxGeometry x="20" y="50" width="120" height="80" as="geometry" />
        </mxCell>
        <mxCell id="a31T5-RE2H_aCCWQN1QR-22" value="ccp-website-deploy" style="shape=cube;whiteSpace=wrap;html=1;boundedLbl=1;backgroundOutline=1;darkOpacity=0.05;darkOpacity2=0.1;fillColor=#FFE8BA;" parent="a31T5-RE2H_aCCWQN1QR-20" vertex="1">
          <mxGeometry x="150" y="50" width="140" height="80" as="geometry" />
        </mxCell>
        <mxCell id="a31T5-RE2H_aCCWQN1QR-23" value="PMX Website" style="swimlane;whiteSpace=wrap;html=1;" parent="1" vertex="1">
          <mxGeometry x="350" y="1240" width="300" height="160" as="geometry">
            <mxRectangle x="620" y="1010" width="110" height="30" as="alternateBounds" />
          </mxGeometry>
        </mxCell>
        <mxCell id="a31T5-RE2H_aCCWQN1QR-24" value="pmx-website" style="shape=cube;whiteSpace=wrap;html=1;boundedLbl=1;backgroundOutline=1;darkOpacity=0.05;darkOpacity2=0.1;fillColor=#D9F7FF;" parent="a31T5-RE2H_aCCWQN1QR-23" vertex="1">
          <mxGeometry x="20" y="50" width="120" height="80" as="geometry" />
        </mxCell>
        <mxCell id="a31T5-RE2H_aCCWQN1QR-25" value="pmx-website-deploy" style="shape=cube;whiteSpace=wrap;html=1;boundedLbl=1;backgroundOutline=1;darkOpacity=0.05;darkOpacity2=0.1;fillColor=#FFE8BA;" parent="a31T5-RE2H_aCCWQN1QR-23" vertex="1">
          <mxGeometry x="150" y="50" width="140" height="80" as="geometry" />
        </mxCell>
        <mxCell id="a31T5-RE2H_aCCWQN1QR-32" style="edgeStyle=orthogonalEdgeStyle;rounded=0;orthogonalLoop=1;jettySize=auto;html=1;entryX=0;entryY=0;entryDx=55;entryDy=0;entryPerimeter=0;strokeColor=#FFB92E;curved=1;" parent="1" source="a31T5-RE2H_aCCWQN1QR-5" target="a31T5-RE2H_aCCWQN1QR-15" edge="1">
          <mxGeometry relative="1" as="geometry" />
        </mxCell>
        <mxCell id="BxIv-oCnD2FX7Bfe5fGx-1" value="" style="edgeStyle=orthogonalEdgeStyle;rounded=0;orthogonalLoop=1;jettySize=auto;html=1;strokeColor=#FFB92E;" edge="1" parent="1" source="a31T5-RE2H_aCCWQN1QR-5" target="a31T5-RE2H_aCCWQN1QR-6">
          <mxGeometry relative="1" as="geometry" />
        </mxCell>
        <mxCell id="BxIv-oCnD2FX7Bfe5fGx-4" style="edgeStyle=orthogonalEdgeStyle;rounded=0;orthogonalLoop=1;jettySize=auto;html=1;entryX=0;entryY=0;entryDx=60;entryDy=0;entryPerimeter=0;strokeColor=#FFB92E;curved=1;" edge="1" parent="1" source="a31T5-RE2H_aCCWQN1QR-5" target="a31T5-RE2H_aCCWQN1QR-22">
          <mxGeometry relative="1" as="geometry" />
        </mxCell>
        <mxCell id="BxIv-oCnD2FX7Bfe5fGx-5" style="edgeStyle=orthogonalEdgeStyle;rounded=0;orthogonalLoop=1;jettySize=auto;html=1;entryX=0;entryY=0;entryDx=60;entryDy=0;entryPerimeter=0;strokeColor=#FFB92E;curved=1;" edge="1" parent="1" source="a31T5-RE2H_aCCWQN1QR-5" target="a31T5-RE2H_aCCWQN1QR-25">
          <mxGeometry relative="1" as="geometry" />
        </mxCell>
        <mxCell id="BxIv-oCnD2FX7Bfe5fGx-9" style="edgeStyle=orthogonalEdgeStyle;curved=1;rounded=0;orthogonalLoop=1;jettySize=auto;html=1;strokeColor=#FFB92E;elbow=vertical;" edge="1" parent="1" source="a31T5-RE2H_aCCWQN1QR-5">
          <mxGeometry relative="1" as="geometry">
            <mxPoint x="1210" y="1050" as="targetPoint" />
          </mxGeometry>
        </mxCell>
        <mxCell id="a31T5-RE2H_aCCWQN1QR-5" value="jdg-ops" style="shape=cube;whiteSpace=wrap;html=1;boundedLbl=1;backgroundOutline=1;darkOpacity=0.05;darkOpacity2=0.1;fillColor=#FFCD75;" parent="1" vertex="1">
          <mxGeometry x="1000" y="720" width="120" height="80" as="geometry" />
        </mxCell>
      </root>
    </mxGraphModel>
  </diagram>
</mxfile>
